PathFileType	4	(X/Y/Z)	37_1_tpose_p1_0-183_filt_butterworth.trc
DataRate	CameraRate	NumFrames	NumMarkers	Units	OrigDataRate	OrigDataStartFrame	OrigNumFrames
60.0	60.0	7	27	m	60.0	22	183
Frame#	Time	RHip			RKnee			RAnkle			RBigToe			RSmallToe			RHeel			LHip			LKnee			LAnkle			LBigToe			LSmallToe			LHeel			Neck			Head			Nose			RShoulder			RElbow			RWrist			RThumb			RIndex			RPinky			LShoulder			LElbow			LWrist			LThumb			LIndex			LPinky			
		X1	Y1	Z1	X2	Y2	Z2	X3	Y3	Z3	X4	Y4	Z4	X5	Y5	Z5	X6	Y6	Z6	X7	Y7	Z7	X8	Y8	Z8	X9	Y9	Z9	X10	Y10	Z10	X11	Y11	Z11	X12	Y12	Z12	X13	Y13	Z13	X14	Y14	Z14	X15	Y15	Z15	X16	Y16	Z16	X17	Y17	Z17	X18	Y18	Z18	X19	Y19	Z19	X20	Y20	Z20	X21	Y21	Z21	X22	Y22	Z22	X23	Y23	Z23	X24	Y24	Z24	X25	Y25	Z25	X26	Y26	Z26	X27	Y27	Z27	
22	0.3666666666666666	0.3833609431495048	0.6975927629385819	0.5264803617064304	0.40215032431235664	0.906716066076511	0.950439716620034	0.4156204289073721	1.0368470750320362	1.3940262048760013	0.31712360109985105	0.8632258148136551	1.4361559578726517	0.38546153831899405	0.842695860800662	1.4341130583007862	0.4214884152155374	1.0781447715654027	1.4441377277852854	0.18237825152546822	0.7404714803205099	0.5226585872669274	0.16319572586027173	0.9284397759601924	0.953656748592097	0.16509336296388294	1.0712596377626138	1.3962556643135273	0.1599204690553751	0.8493448172853882	1.4117002971145562	0.11368257283054446	0.9249090862640585	1.4229191877203635	0.1856284253411622	1.1429060580341606	1.4425879085524458	0.2817660381461921	0.5716873802018154	0.003253829869770368	0.2767207471425874	0.45565928099015457	-0.22539005909016374	0.256901797100125	0.4093675575862227	-0.08088263847553694	0.44448682606626505	0.5857215233935107	0.050765616913091456	0.7055646780957201	0.5616696321113052	0.026152735744573396	0.9513236387395334	0.5669618814530607	-0.005458462565060168	1.0840423579985068	0.505598878034375	-0.006629283381350532	1.1251021214710475	0.5515841338044449	-0.026340911116447242	1.0886669874068464	0.5579921076013462	-0.0075887227179600916	0.10367337661423938	0.5990649029939108	0.04212822744250511	-0.14303706552139905	0.6616358346742971	0.028246720134079098	-0.4034175132122232	0.6815880701973162	-0.01468106101218267	-0.5016583547010346	0.6489026503912777	-0.023674873883329145	-0.5194233392169277	0.6797025215115398	-0.0510117949299015	-0.4993732805839048	0.7051150860115922	-0.055658637024688144
23	0.3833333333333333	0.38345173844144853	0.6975030318526323	0.5263687947815712	0.40217708552205406	0.9066451354129652	0.9503378298425477	0.4156150410410884	1.0368515859190992	1.394027844463088	0.31777499698447026	0.86780974274763	1.4393122830812248	0.38548001784808295	0.8432806492709038	1.4342936337427754	0.42125145792370733	1.0792241811473895	1.4427421132948215	0.1823877645000844	0.7403882502771375	0.5210385358118443	0.16313425681199686	0.9284293846019733	0.9535661737896198	0.16552106470601335	1.0708039878922415	1.3949445256578787	0.16123833225335418	0.8502295623130729	1.4129546191253441	0.11361800984323847	0.9248806741151598	1.4229340970729625	0.18577775557373472	1.142114652022292	1.442138179874196	0.2817322221495849	0.5716808362208353	0.003297556314751437	0.2767425042505309	0.4555565775245744	-0.22533938345708654	0.2568234101576491	0.40936843071488893	-0.08087261763864728	0.4438843683723929	0.5843161185755152	0.05061132268043996	0.7056994838633847	0.5619011041436879	0.02691960428647349	0.9514630472099779	0.5709262521102428	-0.004527011451163845	1.0863087278250132	0.5073256527116978	-0.005869838677838321	1.1254079744639742	0.5530046223362063	-0.023907715132379173	1.093081430332478	0.5636196481448813	-0.007700491593391118	0.10417527667386861	0.6005010358085152	0.04196443586320185	-0.14350521348626555	0.6612001105392947	0.028607060959168644	-0.40350111060867516	0.6839501985183813	-0.012139269342707667	-0.5047363245973217	0.6579149188732238	-0.023945754899819486	-0.5264972183946264	0.6902387706502825	-0.05298441422916867	-0.49984551747706596	0.7050771060947373	-0.05291918759666985
24	0.4	0.38339657679154016	0.6975786920523476	0.5263193467828013	0.40223564915225674	0.9065872884892849	0.9502518387755687	0.4155942459294824	1.036980514782358	1.3940629800608484	0.31792809760130225	0.8705842841773518	1.44078493238667	0.38555458138971405	0.8437070141290335	1.4341761390577628	0.4210895078742071	1.081161786743612	1.4419307095322536	0.18232376171599576	0.7401763749923793	0.519945965201943	0.1630372518469484	0.9280554385603428	0.9529305976508671	0.16595720313316445	1.0702427192727813	1.3932250739314151	0.16251239499314088	0.849018536442712	1.4143893854623042	0.11357248337067201	0.9249703637607967	1.4229516338150958	0.18600190015139498	1.1417369498060645	1.4413737519153735	0.2817067481918533	0.5716544958682149	0.0033118088180672297	0.2767837362828208	0.4554251042871104	-0.22530125258177025	0.2567678992735872	0.40922950134236097	-0.08086687586433254	0.44368703492324285	0.583794926210355	0.05012148169685929	0.7056973731614524	0.5615314824487231	0.029086682618445395	0.9508089930197496	0.570237547779611	-0.002501045447621109	1.0854458259963917	0.5010881468787463	-0.004086758337209594	1.12502850087275	0.548741076951097	-0.021422645589544032	1.0960129917516586	0.5659377423379168	-0.007302207179534429	0.1052787695851207	0.603805546210086	0.04153705065407237	-0.14433211845913757	0.6599848765884339	0.02906879805930535	-0.40362010479075405	0.6872440708737022	-0.008936776035628462	-0.5085220379405241	0.6694718362953868	-0.02290614400936438	-0.5331020507393697	0.7011708804931935	-0.05509031488636629	-0.5005112958438146	0.7031846431289139	-0.049142470832055786
25	0.4166666666666667	0.3830576907560814	0.6989666969236281	0.5266657868337009	0.4022821767558367	0.9065317889694456	0.9501739595401214	0.4155780522405094	1.037183024464301	1.394009690065511	0.31787332717030525	0.8712322309065588	1.4399247229221637	0.38574660144569256	0.8437149515303839	1.4337426488734426	0.4210232477916567	1.0840138569407418	1.4412881448034491	0.18220549435643288	0.7397783125668426	0.519547092571245	0.16287136554451173	0.92721757825601	0.9516489548797138	0.16626247987849246	1.0698338621560035	1.3919074550125035	0.1632486010421192	0.8470130004781391	1.415292241687542	0.11355557415328409	0.9251486967555806	1.4229600250522818	0.1861516971629832	1.1420074445611204	1.4401922736393167	0.281711934404769	0.5716014554815597	0.0033163806045653963	0.27681769164817	0.4553158467250137	-0.22528798110541684	0.25671166888141533	0.40900416644703386	-0.08085700318870163	0.4435716792204007	0.5835938522076458	0.04978500810383901	0.7054455290305783	0.5595573107787842	0.03239755886026648	0.949759262377387	0.5638345181529603	0.0003375280475252725	1.0826994335605835	0.4881095740441259	-0.0009129518167563784	1.1238788393982628	0.5393407161967008	-0.018821931686169774	1.0957157709892593	0.5632071295240382	-0.005586426546443271	0.106675201111701	0.6080361699729352	0.04097140576869144	-0.14501726022697659	0.6582980803630787	0.029359598374390183	-0.40372656230356374	0.6894458347156945	-0.005896703056540351	-0.5110822934905872	0.6775075634898553	-0.01867943894410845	-0.5357564212033337	0.7052470472780605	-0.05575922793099651	-0.5011699019882742	0.6998981451807406	-0.04566937252277706
26	0.4333333333333333	0.3824217284888688	0.7027294534146604	0.5277058636702817	0.4022211916101029	0.9063935916975164	0.9500301257004907	0.4155690080601998	1.0373669413999271	1.3935580297790686	0.31771871941995855	0.8709096446941393	1.4373580722134371	0.3859930268994497	0.8434451734855044	1.4334929984013174	0.4208511665361053	1.0887754429873142	1.440924541853508	0.18202649344448785	0.7394023817980908	0.5197652542237854	0.16256161601866193	0.9262419671792094	0.9504042869785247	0.16639065339442313	1.0696590214481356	1.3913281412651366	0.1636207498583354	0.8456798823865552	1.4149473914912052	0.11355900861528906	0.9252974695981234	1.422967609970724	0.18615359006975069	1.1425501261783744	1.4388475198848099	0.2817515380917367	0.5715318026692711	0.0033247155109739582	0.27683082483089877	0.4552687795579591	-0.22529761409086027	0.25664916478633154	0.4088540530866266	-0.08082797683086913	0.4434499810632781	0.5834293445524253	0.04966158059810792	0.705011970654185	0.5565674662872705	0.035733694882304906	0.9488620080607524	0.5545896256843651	0.00334769399564884	1.0802058562875825	0.47336482786484846	0.0031991465660150585	1.1218875918802116	0.5274089308169274	-0.01670521767663387	1.0925011899249542	0.5560693796907555	-0.0022983770989291443	0.10772062473138476	0.6112103371822016	0.04054235687598994	-0.1449946020269808	0.657771669667533	0.02959341118215362	-0.4037831748920534	0.6891747128032155	-0.0034582157403142844	-0.5113067106127271	0.6792289401357203	-0.011100200115277518	-0.5346262448067584	0.7014568400323916	-0.05461287437778047	-0.5016424359654477	0.6973647388294788	-0.04290779437902084
27	0.45	0.38172978481868114	0.7079138028180616	0.5292172431852378	0.40194000946318087	0.9061087622371687	0.94982606375666	0.4155590023613191	1.0374609585408758	1.3924717247338296	0.31740994270714595	0.8699409103428479	1.4349196230873924	0.3861242860853106	0.8434243883893194	1.4338701281348394	0.4203498067112869	1.094311510109538	1.4414472611007978	0.18186607212046918	0.7392304217263383	0.5204254753196803	0.16213432103549708	0.9257108122636594	0.9502186744206325	0.1664108780955793	1.0695906032873432	1.391203135563431	0.16351668016681853	0.8452646170739049	1.4137096391112638	0.11357153055806213	0.9253459789892353	1.422988271435745	0.18615638581904678	1.142854533680099	1.437854868756463	0.2818148491675753	0.5714866643316348	0.0033390131803863934	0.27682891778614416	0.45527711757990336	-0.22532332226598667	0.2565958143712216	0.40881610657999606	-0.08078874507154928	0.44347234899995575	0.5835144710034716	0.049553334710455546	0.7046054109198474	0.5541652073677124	0.037932051159424406	0.9483156976184245	0.545844697988922	0.00579860848422244	1.078904626774062	0.4621332376691888	0.006857540273885611	1.1195589611001413	0.516624859579985	-0.015562371650959517	1.088008259897658	0.5465632860267207	0.0016235251183228418	0.10813196399768402	0.6124194727172063	0.04037666033344746	-0.14434638275757264	0.6593776084137649	0.02995917535730472	-0.40379949682859545	0.6875667789810085	-0.0015968367458490335	-0.5101037751815627	0.6773062789753299	-0.0030101673807253313	-0.5319862050719317	0.6941089192826686	-0.05263824815843848	-0.502134847848212	0.696772081246811	-0.04070881957147359
28	0.4666666666666667	0.3813130791316935	0.7121639791500698	0.530503315741353	0.4014685202751116	0.9058782280696263	0.9498682070602037	0.4155480849399874	1.0374831061646088	1.3910490627805063	0.3174932724020489	0.8693229027801608	1.4343455936840561	0.38602977002266164	0.8439852418509068	1.4346233461851015	0.4196331181588512	1.0974185399168377	1.4430917514178663	0.1818556488319213	0.7393092085093872	0.5211494494540233	0.16173822367047408	0.9257933778869131	0.9511537863792711	0.16637905979994141	1.0695553830314968	1.3912978964225795	0.16224788669294912	0.8454607212451817	1.4123442908569477	0.11358007816824334	0.9253317568843474	1.423022009108022	0.18660991562655224	1.142904776373037	1.4374656652330895	0.2818658391553256	0.5715241287951881	0.0033467368550500866	0.2768231374384733	0.45530629870923356	-0.22536497587219753	0.25658893024607604	0.40883509539659396	-0.08077258921309921	0.4440570772160481	0.5847331051963741	0.049350530155512225	0.7043528912807925	0.5531774675937478	0.038835530564596946	0.9480037374399983	0.5395031279542577	0.007455075423010389	1.0785747288193066	0.45739842720544627	0.008872542715456923	1.1182449765563978	0.510681444403288	-0.01521712282576188	1.0839334202263116	0.5386566678979198	0.004508265530254701	0.10813883738939602	0.6123368250731962	0.040386941772995476	-0.14368772836354235	0.661752552789356	0.030484723254943405	-0.40383665012862574	0.6865547140590404	0.0002452302774646807	-0.5088160011172198	0.6751080829603624	0.002485272176663837	-0.5285486575265472	0.6867619778310986	-0.050368434095940495	-0.5030990363332173	0.6976453261099532	-0.03933713448440232
